<svg width="179" height="53" viewBox="0 0 179 53" fill="none" xmlns="http://www.w3.org/2000/svg">
<path d="M19.3233 28.7105C18.8946 28.6798 17.5778 28.6645 15.3729 28.6645C13.168 28.6645 11.8818 28.7258 11.5143 28.8483C9.89126 34.1768 8.97255 38.02 8.75818 40.3781C8.75818 40.4087 8.37539 40.424 7.6098 40.424C6.87483 40.424 6.10924 40.3781 5.31302 40.2862C3.62872 40.0412 2.78657 39.8268 2.78657 39.6431C2.78657 38.4182 3.87371 34.8505 6.04799 28.9401C5.64988 28.6033 5.19053 27.9142 4.66993 26.873C4.14932 25.8012 3.88902 24.9131 3.88902 24.2088C3.88902 24.1782 5.1599 24.1169 7.70167 24.025C10.2128 16.7366 11.6368 12.8933 11.9737 12.4952C12.0962 12.4034 12.6474 12.2655 13.6273 12.0818C14.6073 11.8674 15.2351 11.7603 15.5107 11.7603L15.4188 11.1631C15.3576 10.7344 15.281 10.275 15.1892 9.78503C15.1279 9.26443 15.0973 8.92757 15.0973 8.77445C15.0973 8.68258 15.3576 8.49884 15.8782 8.22323C17.3787 7.48826 18.9252 7.12078 20.5177 7.12078C20.8239 8.92757 21.222 11.2397 21.712 14.057C22.2326 16.8438 23.2279 21.1158 24.6978 26.873C26.1677 32.6303 27.5764 36.642 28.9239 38.9081L29.2454 39.4594C29.2454 39.6125 28.9545 39.8728 28.3726 40.2403C27.7908 40.6077 27.0252 40.9599 26.0759 41.2968C25.1265 41.6336 24.2538 41.8021 23.4575 41.8021C23.1819 41.8021 22.5082 40.0718 21.4364 36.6114C20.3952 33.1203 19.6908 30.4866 19.3233 28.7105ZM18.2209 23.9791C17.1797 19.5693 16.6132 17.1041 16.5213 16.5835C16.4294 16.0629 16.3529 15.8026 16.2916 15.8026C16.2304 15.8026 16.1538 15.8638 16.0619 15.9863C15.7863 16.5069 15.2657 17.7625 14.5001 19.753C13.7652 21.7436 13.2905 23.1216 13.0761 23.8872C16.4753 23.8872 18.1903 23.9178 18.2209 23.9791ZM37.7991 28.6645L37.845 30.3641V33.8552C37.845 37.132 37.7838 38.8316 37.6613 38.9541C37.2632 39.3522 36.5742 39.6584 35.5942 39.8728C34.6142 40.0871 33.8027 40.1943 33.1596 40.1943C32.5471 40.1943 32.2409 40.1484 32.2409 40.0565C32.4553 38.6785 32.5625 36.4123 32.5625 33.2581L32.4246 22.9226C32.4246 21.0239 32.5012 19.998 32.6543 19.8449C32.9912 19.508 33.573 19.2171 34.3999 18.9721C35.2267 18.6965 35.9923 18.5587 36.6966 18.5587C37.4316 18.5587 37.7991 18.6353 37.7991 18.7884C37.7072 19.5234 37.6613 20.2583 37.6613 20.9933C37.6613 21.7283 37.7072 22.0957 37.7991 22.0957L37.9369 22.0039C38.09 21.7895 38.3197 21.5292 38.6259 21.223C38.9322 20.8861 39.5753 20.4574 40.5552 19.9368C41.5658 19.3855 42.5151 19.1099 43.4032 19.1099C44.3219 19.1099 45.0875 19.2784 45.7 19.6152C46.3431 19.9215 46.8637 20.3043 47.2618 20.7636C47.6599 21.223 47.9968 21.8814 48.2724 22.7388C48.5786 23.5963 48.8083 24.3925 48.9614 25.1275C49.1145 25.8625 49.237 26.8424 49.3289 28.0674C49.4208 29.7517 49.4667 31.8953 49.4667 34.4983L49.3289 39.8728C49.3289 40.0871 48.8236 40.2862 47.813 40.4699C46.8025 40.6843 45.9909 40.7915 45.3785 40.7915L43.8626 40.5618C44.1688 37.8057 44.3219 35.1414 44.3219 32.569C44.3219 29.966 44.1535 28.0214 43.8166 26.7352C43.4798 25.4184 42.8061 24.76 41.7955 24.76C40.7849 24.76 39.9581 25.0356 39.315 25.5868C38.7025 26.1381 38.3044 26.6893 38.1206 27.2405L37.7991 28.0214V28.6645ZM56.8551 11.5765C57.7126 11.5765 58.4016 11.8521 58.9222 12.4034C59.4428 12.9546 59.7031 13.6742 59.7031 14.5623C59.7031 15.4504 59.351 16.216 58.6466 16.8591C57.9729 17.4716 57.2073 17.7778 56.3499 17.7778C55.523 17.7778 54.8493 17.5175 54.3287 16.9969C53.8387 16.4457 53.5937 15.726 53.5937 14.8379C53.5937 13.9498 53.9306 13.1843 54.6043 12.5412C55.278 11.8981 56.0283 11.5765 56.8551 11.5765ZM59.1979 23.0145L59.106 30.456C59.106 32.8446 59.1672 34.6055 59.2897 35.7386C59.4428 36.841 59.841 37.8822 60.484 38.8622C60.484 39.1684 59.8563 39.6584 58.6007 40.3321C57.3451 41.0058 56.2733 41.3427 55.3852 41.3427C55.1096 41.3427 54.834 40.8834 54.5584 39.9646C54.2828 39.0459 54.099 38.1732 54.0071 37.3463C53.9459 36.5195 53.9153 33.7327 53.9153 28.9861C53.9153 24.2394 54.0225 21.6517 54.2368 21.223C54.9412 20.6717 56.1814 20.3961 57.9576 20.3961C58.6619 20.3961 59.0907 20.488 59.2438 20.6717L59.1979 23.0145ZM64.0085 33.304L63.8707 22.5092C63.8707 20.5492 63.9473 19.4927 64.1004 19.3396C64.4679 19.0028 65.0344 18.6965 65.8 18.4209C66.5656 18.1147 67.3006 17.9615 68.0049 17.9615C68.7093 17.9615 69.0614 18.0228 69.0614 18.1453C68.9389 19.4927 68.8777 20.5186 68.8777 21.223C68.8777 21.9273 68.9083 22.2795 68.9696 22.2795C69.0308 22.2795 69.1227 22.2182 69.2452 22.0957C69.3677 21.9426 69.582 21.7283 69.8883 21.4526C70.2251 21.1464 70.8223 20.7483 71.6797 20.2583C72.5678 19.7377 73.3794 19.4774 74.1143 19.4774C76.1049 19.4774 77.6054 20.3655 78.616 22.1417C80.3616 19.6918 82.2908 18.4668 84.4039 18.4668C86.3025 18.4668 87.6653 19.2784 88.4921 20.9014C89.3496 22.7082 89.8549 24.515 90.008 26.3218C90.1917 28.9554 90.2836 31.6809 90.2836 34.4983L90.0999 39.8728C90.0999 40.0871 89.5946 40.2862 88.584 40.4699C87.5734 40.6843 86.7619 40.7915 86.1494 40.7915L84.6795 40.5618C85.0163 37.5301 85.1848 35.0802 85.1848 33.2121C85.1848 31.3441 85.1542 30.012 85.0929 29.2157C85.0623 28.3889 84.9551 27.5774 84.7714 26.7812C84.5876 25.9543 84.2967 25.3725 83.8986 25.0356C83.5311 24.6681 83.0564 24.4844 82.4746 24.4844C81.8927 24.4844 81.3721 24.6528 80.9128 24.9897C80.4534 25.2959 80.1166 25.6022 79.9022 25.9084C79.7185 26.2146 79.6266 26.4137 79.6266 26.5055C79.7185 27.4855 79.7644 29.7517 79.7644 33.304L79.5806 36.9329C79.5806 37.1779 79.0907 37.3923 78.1107 37.576C77.1308 37.7597 76.3345 37.8516 75.7221 37.8516L74.2521 37.6219C74.5277 35.1414 74.6656 32.8293 74.6656 30.6857C74.6656 28.5114 74.5431 26.9955 74.2981 26.1381C74.0837 25.25 73.4865 24.8059 72.5066 24.8059C71.5266 24.8059 70.6998 25.2959 70.0261 26.2759C69.3523 27.2558 69.0155 28.0061 69.0155 28.5267V29.4914L69.0614 34.3605C69.0614 37.3616 69.0002 38.9388 68.8777 39.0919C68.1121 39.8268 66.5043 40.1943 64.0545 40.1943C63.8095 40.1943 63.687 40.1484 63.687 40.0565C63.9013 38.7397 64.0085 36.4889 64.0085 33.304ZM112.973 29.4454C112.973 32.3547 112.085 34.8811 110.309 37.0248C108.563 39.1378 106.175 40.1943 103.143 40.1943C100.142 40.1943 97.7839 39.2603 96.069 37.3923C94.354 35.5242 93.4966 33.1049 93.4966 30.1345C93.4966 27.1333 94.5531 24.4844 96.6661 22.1876C98.8098 19.8602 101.688 18.6965 105.302 18.6965C106.772 18.7578 107.568 18.8496 107.691 18.9721C107.813 19.0946 107.874 19.3855 107.874 19.8449C107.874 20.3043 107.828 20.8095 107.737 21.3608C108.196 21.3608 108.778 21.6364 109.482 22.1876C110.217 22.7082 110.814 23.2441 111.274 23.7954C111.733 24.3466 112.131 25.1275 112.468 26.1381C112.805 27.118 112.973 28.2205 112.973 29.4454ZM106.267 26.2299C105.562 25.7706 104.873 25.5409 104.2 25.5409H103.832C103.771 25.4184 103.74 25.1581 103.74 24.76C103.74 24.3619 103.786 23.9791 103.878 23.6116C102.622 23.6116 101.443 24.1782 100.341 25.3112C99.2691 26.4443 98.7332 28.0214 98.7332 30.0426C98.7332 32.4312 99.4988 34.0849 101.03 35.0036C101.612 35.3711 102.408 35.5548 103.419 35.5548C104.46 35.5548 105.425 35.0802 106.313 34.1308C107.231 33.1815 107.691 31.7728 107.691 29.9048C107.691 28.0367 107.216 26.8118 106.267 26.2299ZM122.499 8.91226C122.438 9.6166 122.361 11.5459 122.269 14.7001C124.566 14.7001 125.715 14.7461 125.715 14.8379C125.715 15.8791 125.561 16.8132 125.255 17.64C124.949 18.4362 124.658 18.8343 124.382 18.8343H122.223C122.162 23.3666 122.132 27.0568 122.132 29.9048C122.132 32.7222 122.178 34.6055 122.269 35.5548C122.453 37.1473 123.081 38.4488 124.153 39.4594C124.153 39.7962 123.556 40.2862 122.361 40.9293C121.198 41.5724 120.095 41.8939 119.054 41.8939C118.962 41.8939 118.778 41.7408 118.503 41.4346C118.258 41.1283 117.982 40.6231 117.676 39.9187C117.4 39.2144 117.217 38.5253 117.125 37.8516C117.063 37.1779 117.033 34.7739 117.033 30.6397C117.033 26.5055 117.079 22.601 117.171 18.9262L114.598 18.9721C114.445 18.819 114.369 18.1606 114.369 16.9969C114.369 15.8026 114.506 15.0829 114.782 14.8379C115.456 14.8073 116.267 14.7767 117.217 14.7461C117.217 12.9699 117.171 11.8215 117.079 11.3009C116.987 10.7803 116.941 10.4741 116.941 10.3822C116.941 10.076 117.462 9.72379 118.503 9.32568C119.575 8.92757 120.509 8.72852 121.305 8.72852C122.101 8.72852 122.499 8.78976 122.499 8.91226ZM130.155 11.5765C131.012 11.5765 131.701 11.8521 132.222 12.4034C132.742 12.9546 133.003 13.6742 133.003 14.5623C133.003 15.4504 132.65 16.216 131.946 16.8591C131.272 17.4716 130.507 17.7778 129.649 17.7778C128.822 17.7778 128.149 17.5175 127.628 16.9969C127.138 16.4457 126.893 15.726 126.893 14.8379C126.893 13.9498 127.23 13.1843 127.904 12.5412C128.577 11.8981 129.328 11.5765 130.155 11.5765ZM132.497 23.0145L132.405 30.456C132.405 32.8446 132.467 34.6055 132.589 35.7386C132.742 36.841 133.14 37.8822 133.783 38.8622C133.783 39.1684 133.156 39.6584 131.9 40.3321C130.645 41.0058 129.573 41.3427 128.685 41.3427C128.409 41.3427 128.133 40.8834 127.858 39.9646C127.582 39.0459 127.398 38.1732 127.307 37.3463C127.245 36.5195 127.215 33.7327 127.215 28.9861C127.215 24.2394 127.322 21.6517 127.536 21.223C128.241 20.6717 129.481 20.3961 131.257 20.3961C131.961 20.3961 132.39 20.488 132.543 20.6717L132.497 23.0145ZM155.544 29.4454C155.544 32.3547 154.656 34.8811 152.88 37.0248C151.134 39.1378 148.746 40.1943 145.714 40.1943C142.713 40.1943 140.355 39.2603 138.64 37.3923C136.925 35.5242 136.068 33.1049 136.068 30.1345C136.068 27.1333 137.124 24.4844 139.237 22.1876C141.381 19.8602 144.259 18.6965 147.873 18.6965C149.343 18.7578 150.139 18.8496 150.262 18.9721C150.384 19.0946 150.445 19.3855 150.445 19.8449C150.445 20.3043 150.4 20.8095 150.308 21.3608C150.767 21.3608 151.349 21.6364 152.053 22.1876C152.788 22.7082 153.385 23.2441 153.845 23.7954C154.304 24.3466 154.702 25.1275 155.039 26.1381C155.376 27.118 155.544 28.2205 155.544 29.4454ZM148.838 26.2299C148.133 25.7706 147.444 25.5409 146.771 25.5409H146.403C146.342 25.4184 146.311 25.1581 146.311 24.76C146.311 24.3619 146.357 23.9791 146.449 23.6116C145.194 23.6116 144.014 24.1782 142.912 25.3112C141.84 26.4443 141.304 28.0214 141.304 30.0426C141.304 32.4312 142.07 34.0849 143.601 35.0036C144.183 35.3711 144.979 35.5548 145.99 35.5548C147.031 35.5548 147.996 35.0802 148.884 34.1308C149.802 33.1815 150.262 31.7728 150.262 29.9048C150.262 28.0367 149.787 26.8118 148.838 26.2299ZM164.795 28.6645L164.84 30.3641V33.8552C164.84 37.132 164.779 38.8316 164.657 38.9541C164.259 39.3522 163.57 39.6584 162.59 39.8728C161.61 40.0871 160.798 40.1943 160.155 40.1943C159.543 40.1943 159.236 40.1484 159.236 40.0565C159.451 38.6785 159.558 36.4123 159.558 33.2581L159.42 22.9226C159.42 21.0239 159.497 19.998 159.65 19.8449C159.987 19.508 160.568 19.2171 161.395 18.9721C162.222 18.6965 162.988 18.5587 163.692 18.5587C164.427 18.5587 164.795 18.6353 164.795 18.7884C164.703 19.5234 164.657 20.2583 164.657 20.9933C164.657 21.7283 164.703 22.0957 164.795 22.0957L164.932 22.0039C165.085 21.7895 165.315 21.5292 165.621 21.223C165.928 20.8861 166.571 20.4574 167.551 19.9368C168.561 19.3855 169.511 19.1099 170.399 19.1099C171.317 19.1099 172.083 19.2784 172.695 19.6152C173.339 19.9215 173.859 20.3043 174.257 20.7636C174.655 21.223 174.992 21.8814 175.268 22.7388C175.574 23.5963 175.804 24.3925 175.957 25.1275C176.11 25.8625 176.232 26.8424 176.324 28.0674C176.416 29.7517 176.462 31.8953 176.462 34.4983L176.324 39.8728C176.324 40.0871 175.819 40.2862 174.808 40.4699C173.798 40.6843 172.986 40.7915 172.374 40.7915L170.858 40.5618C171.164 37.8057 171.317 35.1414 171.317 32.569C171.317 29.966 171.149 28.0214 170.812 26.7352C170.475 25.4184 169.802 24.76 168.791 24.76C167.78 24.76 166.954 25.0356 166.31 25.5868C165.698 26.1381 165.3 26.6893 165.116 27.2405L164.795 28.0214V28.6645Z" fill="#43B97F"/>
<path d="M1 47.2114C1 47.2114 31.7437 36.0446 89.3373 45.5422C146.931 55.0398 176.448 41.4695 176.448 41.4695" stroke="#43B97F" stroke-width="1.27599"/>
</svg>
